<svg xmlns="http://www.w3.org/2000/svg" fill="currentColor" viewBox="0 0 24 24"><path d="M12 2A10 10 0 1 0 22 12A10.01 10.01 0 0 0 12 2Zm4.41 14.51a.75.75 0 0 1-1.05.2a7.25 7.25 0 0 0-7.14-.28a.75.75 0 0 1-.7-1.33a8.75 8.75 0 0 1 8.62.34a.75.75 0 0 1 .27 1.06Zm1.5-3a.75.75 0 0 1-1.05.2a10.25 10.25 0 0 0-10.1-.34a.75.75 0 1 1-.7-1.33a11.75 11.75 0 0 1 11.6.4a.75.75 0 0 1 .25 1.07Zm.09-3a.75.75 0 0 1-1.01.3a13.76 13.76 0 0 0-13.33-.43a.75.75 0 0 1-.64-1.35a15.26 15.26 0 0 1 14.77.48a.75.75 0 0 1 .21 1Z"/></svg>