<svg xmlns="http://www.w3.org/2000/svg" viewBox="0 0 100 100" fill="currentColor"><path d="M50,0C22.4,0,0,22.4,0,50s22.4,50,50,50s50-22.4,50-50S77.6,0,50,0z M67.9,66.6c-2.1,2.5-4.7,4.5-7.9,6
c-3.2,1.5-6.9,2.3-10.9,2.3c-3.8,0-7.2-0.6-10.2-1.8c-3-1.2-5.6-2.9-7.7-5.1c-2.1-2.2-3.7-4.7-4.8-7.5c-1.1-2.8-1.6-5.8-1.6-9.1
c0-3.4,0.5-6.5,1.6-9.3c1.1-2.8,2.6-5.3,4.6-7.5c2-2.2,4.5-3.9,7.4-5.1c2.9-1.2,6.1-1.8,9.6-1.8c3.4,0,6.4,0.4,9.1,1.1
c2.7,0.7,5,1.7,6.9,2.8c2.2,1.3,4.2,2.8,6,4.5l-5.6,5.9c-1.3-1.2-2.6-2.2-4.1-3.1c-1.5-0.9-3.1-1.6-4.8-2c-1.7-0.5-3.5-0.7-5.4-0.7
c-2.3,0-4.5,0.4-6.5,1.2c-2,0.8-3.7,1.9-5.2,3.3c-1.5,1.4-2.6,3.2-3.5,5.2c-0.9,2-1.3,4.2-1.3,6.6c0,2.7,0.4,5.2,1.3,7.3
c0.9,2.1,2.2,3.9,3.8,5.4c1.6,1.4,3.6,2.5,5.9,3.2c2.3,0.7,4.9,1.1,7.7,1.1c2.1,0,4.1-0.4,5.8-1.1c1.7-0.7,3.2-1.7,4.4-2.9
c1.2-1.2,2.1-2.6,2.8-4.2c0.7-1.6,1.1-3.3,1.1-5.1H50v-7h25.2c0.3,1.6,0.5,3.4,0.5,5.3C75.7,58.2,72.6,63.1,67.9,66.6z"/></svg>